<svg width="64" height="64" viewBox="0 0 64 64" xmlns="http://www.w3.org/2000/svg">
  <!-- rocky base -->
  <path d="M18 60 Q32 54 46 60 L46 62 L18 62 Z" fill="#9aa7a7"/>
  <!-- tower (tapered) -->
  <path d="M25 58 L27 22 L37 22 L39 58 Z" fill="#f4f6f7"/>
  <!-- red stripes -->
  <path d="M25.8 51 L38.2 51 L38.5 58 L25.5 58 Z" fill="#e8503a"/>
  <path d="M26.7 37 L37.3 37 L37.65 44 L26.35 44 Z" fill="#e8503a"/>
  <path d="M27 22 L37 22 L37.3 27.5 L26.7 27.5 Z" fill="#e8503a"/>
  <!-- shading on right -->
  <path d="M34 22 L37 22 L39 58 L35.5 58 Z" fill="#000000" opacity="0.07"/>
  <!-- gallery deck -->
  <rect x="24" y="18.5" width="16" height="4" rx="1" fill="#5b6b6b"/>
  <!-- lantern room -->
  <rect x="27" y="10" width="10" height="9" rx="1" fill="#bfe6f2"/>
  <rect x="27" y="10" width="10" height="9" rx="1" fill="none" stroke="#5b6b6b" stroke-width="1"/>
  <line x1="32" y1="10" x2="32" y2="19" stroke="#5b6b6b" stroke-width="0.8"/>
  <!-- glowing lamp -->
  <circle cx="32" cy="14.5" r="2.6" fill="#fff3b0"/>
  <!-- roof + finial -->
  <path d="M25.5 10 L32 3.5 L38.5 10 Z" fill="#e8503a"/>
  <circle cx="32" cy="3" r="1.4" fill="#5b6b6b"/>
  <!-- door -->
  <path d="M30 58 v-6 a2 2 0 0 1 4 0 v6 z" fill="#7a5a3a"/>
</svg>
