<svg width="64" height="64" viewBox="0 0 64 64" xmlns="http://www.w3.org/2000/svg">
  <!-- base mound -->
  <path d="M4 58 Q32 50 60 58 L60 60 L4 60 Z" fill="#e8c98f"/>
  <!-- main keep -->
  <rect x="24" y="26" width="16" height="30" rx="1.5" fill="#f0d59c"/>
  <rect x="24" y="26" width="16" height="30" rx="1.5" fill="#dcbd7f" opacity="0.0"/>
  <path d="M24 26 h16 v3 h-16 z" fill="#d8b877"/>
  <!-- crenellations on keep -->
  <path d="M24 26 v-4 h3 v2 h3 v-2 h4 v2 h3 v-2 h3 v4 z" fill="#f0d59c"/>
  <!-- side towers -->
  <rect x="10" y="34" width="12" height="22" rx="1.5" fill="#ecd193"/>
  <path d="M10 34 v-3 h2.5 v1.6 h2.4 v-1.6 h2.2 v1.6 h2.4 v-1.6 h2.5 v3 z" fill="#ecd193"/>
  <rect x="42" y="34" width="12" height="22" rx="1.5" fill="#ecd193"/>
  <path d="M42 34 v-3 h2.5 v1.6 h2.4 v-1.6 h2.2 v1.6 h2.4 v-1.6 h2.5 v3 z" fill="#ecd193"/>
  <!-- shading -->
  <rect x="36" y="29" width="4" height="27" fill="#d8b877" opacity="0.5"/>
  <rect x="18" y="34" width="4" height="22" fill="#d8b877" opacity="0.5"/>
  <rect x="50" y="34" width="4" height="22" fill="#d8b877" opacity="0.5"/>
  <!-- door + windows -->
  <path d="M29 56 v-9 a3 3 0 0 1 6 0 v9 z" fill="#a6864f"/>
  <rect x="13.5" y="40" width="5" height="6" rx="1" fill="#a6864f"/>
  <rect x="45.5" y="40" width="5" height="6" rx="1" fill="#a6864f"/>
  <!-- flag -->
  <rect x="31.4" y="8" width="1.3" height="14" fill="#8a6d3b"/>
  <path d="M32.7 8.5 L41 11 L32.7 13.5 Z" fill="#ff6b6b"/>
</svg>
